<?xml version="1.0" encoding="UTF-8"?>
<svg version="1.1" xmlns="http://www.w3.org/2000/svg" width="224" height="157">
<path d="M0 0 C1.16731659 0.00493217 1.16731659 0.00493217 2.35821533 0.00996399 C4.84874748 0.02571876 7.33794034 0.06974151 9.828125 0.11328125 C11.48957228 0.12477411 13.15103232 0.13455883 14.8125 0.14257812 C16.41668027 0.15601611 18.02084889 0.17094287 19.625 0.1875 C20.36691589 0.19488693 21.10883179 0.20227386 21.87322998 0.20988464 C25.30851477 0.27194024 28.50752557 0.49033327 31.91894531 1.00317383 C35.0965583 1.66364896 35.0965583 1.66364896 38.078125 0.42578125 C40.77406426 0.29314309 43.44341081 0.21362793 46.140625 0.1875 C46.92832275 0.17942825 47.71602051 0.17135651 48.52758789 0.16304016 C50.19187227 0.14922264 51.85618471 0.13849007 53.52050781 0.13061523 C56.06889931 0.11334378 58.61601242 0.06943282 61.1640625 0.02539062 C62.78124047 0.01526824 64.39842944 0.00675072 66.015625 0 C67.15946655 -0.02626213 67.15946655 -0.02626213 68.32641602 -0.05305481 C73.56243211 -0.03150513 73.56243211 -0.03150513 76.07421875 2.19580078 C77.15321305 4.59257461 77.36613389 5.92880115 77.203125 8.53125 C76.8684811 21.32307686 79.58321492 30.60650414 85.3046875 42.07299805 C85.7996875 43.07500244 86.2946875 44.07700684 86.8046875 45.109375 C87.26439941 45.99165771 87.72411133 46.87394043 88.19775391 47.78295898 C89.29856152 51.08751874 88.99274144 53.09101515 88.078125 56.42578125 C84.79895257 60.54816944 82.0295272 61.91913051 77.078125 63.42578125 C77.13033203 64.75029297 77.13033203 64.75029297 77.18359375 66.1015625 C77.46951342 78.77733442 75.83689265 88.78944921 67.078125 98.42578125 C59.4686913 104.81770556 51.79115999 106.59843869 42.1015625 107.86328125 C39.33762414 108.37750234 37.53626814 109.15358436 35.078125 110.42578125 C31.9922833 110.15744719 29.36777289 109.52922692 26.453125 108.48828125 C23.3123056 107.49950477 20.45379124 107.01224518 17.203125 106.55078125 C8.68129206 105.19911506 1.57059566 101.87010764 -3.87109375 94.9453125 C-10.75355763 84.2272283 -11.2453301 76.05849981 -10.921875 63.42578125 C-12.31986328 63.00039062 -12.31986328 63.00039062 -13.74609375 62.56640625 C-17.60714332 61.17965782 -19.37614155 59.62613188 -21.921875 56.42578125 C-23.19659555 51.77804623 -22.85621568 49.34656022 -20.6484375 45.109375 C-20.1534375 44.10737061 -19.6584375 43.10536621 -19.1484375 42.07299805 C-18.61992188 41.0137915 -18.09140625 39.95458496 -17.546875 38.86328125 C-12.30456114 27.8312275 -10.41847734 18.56366492 -11.1796875 6.41088867 C-10.31717893 -0.23026399 -5.64817637 -0.13184943 0 0 Z M-3.921875 6.42578125 C-3.921875 11.37578125 -3.921875 16.32578125 -3.921875 21.42578125 C0.45696699 21.49459891 4.83393897 21.55434257 9.21289062 21.59057617 C10.70286409 21.60567725 12.19279301 21.62615983 13.68261719 21.65209961 C15.8223773 21.68842709 17.96155066 21.70549346 20.1015625 21.71875 C21.38981934 21.73446045 22.67807617 21.7501709 24.00537109 21.76635742 C25.01937988 21.65396729 26.03338867 21.54157715 27.078125 21.42578125 C27.738125 20.43578125 28.398125 19.44578125 29.078125 18.42578125 C25.778125 18.09578125 22.478125 17.76578125 19.078125 17.42578125 C18.748125 15.44578125 18.418125 13.46578125 18.078125 11.42578125 C27.978125 11.42578125 37.878125 11.42578125 48.078125 11.42578125 C47.748125 13.40578125 47.418125 15.38578125 47.078125 17.42578125 C43.778125 17.75578125 40.478125 18.08578125 37.078125 18.42578125 C37.738125 19.41578125 38.398125 20.40578125 39.078125 21.42578125 C42.28237825 21.84432173 42.28237825 21.84432173 46.0546875 21.71875 C47.08255875 21.71238274 47.08255875 21.71238274 48.13119507 21.70588684 C50.32223629 21.68907878 52.51236132 21.6514253 54.703125 21.61328125 C56.18748673 21.59823704 57.67186285 21.58454818 59.15625 21.57226562 C62.79751286 21.54171812 66.43679223 21.48300825 70.078125 21.42578125 C70.078125 16.47578125 70.078125 11.52578125 70.078125 6.42578125 C66.05752554 6.35663718 62.03845491 6.29698988 58.01757812 6.26098633 C56.65194684 6.24596697 55.28636324 6.22554517 53.92089844 6.19946289 C51.95008595 6.16277988 49.97891092 6.14759574 48.0078125 6.1328125 C46.82429199 6.11710205 45.64077148 6.1013916 44.42138672 6.08520508 C40.70154791 6.46414294 38.34207406 7.66640459 35.078125 9.42578125 C32.29212428 9.22192754 30.37499733 8.56433253 27.8527832 7.38720703 C24.50565424 6.22741875 21.78572567 6.19928257 18.24609375 6.23046875 C16.30766602 6.24013672 16.30766602 6.24013672 14.33007812 6.25 C12.9752577 6.26670798 11.62043999 6.28363783 10.265625 6.30078125 C8.89128249 6.31082122 7.51693297 6.31994529 6.14257812 6.328125 C2.7876851 6.35166811 -0.56711734 6.38753829 -3.921875 6.42578125 Z M29.81762695 26.39990234 C26.51675641 27.63600055 23.76681478 27.74678504 20.24609375 27.83984375 C18.95380859 27.87851562 17.66152344 27.9171875 16.33007812 27.95703125 C14.97526505 27.98848139 13.62044725 28.01972886 12.265625 28.05078125 C10.89125228 28.08899875 9.51690256 28.12805265 8.14257812 28.16796875 C4.78789511 28.26213529 1.43321607 28.34776325 -1.921875 28.42578125 C-0.79874169 31.17655694 0.32655478 33.92641345 1.453125 36.67578125 C1.77023438 37.45308594 2.08734375 38.23039062 2.4140625 39.03125 C2.878125 40.16240234 2.878125 40.16240234 3.3515625 41.31640625 C3.63435059 42.00766602 3.91713867 42.69892578 4.20849609 43.41113281 C5.0631568 45.45974421 5.0631568 45.45974421 6.16259766 47.49902344 C7.50521295 50.32460207 7.45648602 52.33583294 7.078125 55.42578125 C4.25408427 60.2831313 1.05228442 61.41174004 -3.921875 63.42578125 C-4.41475042 74.58393307 -4.12217359 82.18533763 2.265625 91.67578125 C10.59752495 99.82252787 21.89291553 102.47313786 33.35107422 102.4140625 C44.57208554 101.85021701 56.0270427 99.8513325 64.078125 91.42578125 C68.48865898 84.63020308 70.23283521 79.3598729 70.140625 71.23828125 C70.13611328 70.48869141 70.13160156 69.73910156 70.12695312 68.96679688 C70.11518854 67.11975742 70.09725365 65.27275912 70.078125 63.42578125 C69.53542969 63.1834375 68.99273437 62.94109375 68.43359375 62.69140625 C60.81843771 59.12394576 60.81843771 59.12394576 59.078125 55.42578125 C58.22718247 49.26611772 60.99727548 44.5191147 63.578125 39.11328125 C64.42313059 37.30527379 65.26694873 35.49671071 66.109375 33.6875 C66.48642578 32.89303467 66.86347656 32.09856934 67.25195312 31.2800293 C68.14595606 29.61187127 68.14595606 29.61187127 68.078125 28.42578125 C67.22057617 28.40596191 66.36302734 28.38614258 65.47949219 28.36572266 C62.28864858 28.28748604 59.0981776 28.20078782 55.90771484 28.10839844 C54.52857257 28.07018787 53.14933333 28.03532123 51.77001953 28.00390625 C49.78395533 27.95808501 47.79820821 27.89911862 45.8125 27.83984375 C44.02150879 27.7927124 44.02150879 27.7927124 42.19433594 27.74462891 C39.21791443 27.44008437 37.64339392 26.84029521 35.078125 25.42578125 C32.12706155 25.22790624 32.12706155 25.22790624 29.81762695 26.39990234 Z M-7.921875 33.42578125 C-9.25819221 36.40361843 -10.59042604 39.38326457 -11.921875 42.36328125 C-12.3034375 43.21341797 -12.685 44.06355469 -13.078125 44.93945312 C-13.4390625 45.74833984 -13.8 46.55722656 -14.171875 47.390625 C-14.67460938 48.51392212 -14.67460938 48.51392212 -15.1875 49.65991211 C-15.98587331 51.26092323 -15.98587331 51.26092323 -15.921875 52.42578125 C-10.311875 52.42578125 -4.701875 52.42578125 1.078125 52.42578125 C-0.43114397 47.89797433 -2.03154112 43.84431864 -4.046875 39.55078125 C-4.58570313 38.39835937 -5.12453125 37.2459375 -5.6796875 36.05859375 C-6.08960938 35.18976562 -6.49953125 34.3209375 -6.921875 33.42578125 C-7.251875 33.42578125 -7.581875 33.42578125 -7.921875 33.42578125 Z M73.078125 33.42578125 C71.73854579 36.21449302 70.40754065 39.00721187 69.078125 41.80078125 C68.6965625 42.59484375 68.315 43.38890625 67.921875 44.20703125 C67.5609375 44.96757813 67.2 45.728125 66.828125 46.51171875 C66.49296875 47.21345215 66.1578125 47.91518555 65.8125 48.63818359 C64.95145836 50.41201573 64.95145836 50.41201573 65.078125 52.42578125 C70.688125 52.42578125 76.298125 52.42578125 82.078125 52.42578125 C80.95922628 49.63152616 79.83334571 46.84045301 78.703125 44.05078125 C78.38601562 43.25671875 78.06890625 42.46265625 77.7421875 41.64453125 C77.4328125 40.88398437 77.1234375 40.1234375 76.8046875 39.33984375 C76.52189941 38.63811035 76.23911133 37.93637695 75.94775391 37.21337891 C75.10618087 35.23615319 75.10618087 35.23615319 73.078125 33.42578125 Z " fill="#44517A" transform="translate(78.921875,-0.42578125)"/>
<path d="M0 0 C1.98 0 3.96 0 6 0 C6 22.44 6 44.88 6 68 C4.02 68 2.04 68 0 68 C0 45.56 0 23.12 0 0 Z " fill="#44527C" transform="translate(109,29)"/>
<path d="M0 0 C2.31 0 4.62 0 7 0 C7.01458252 1.25659424 7.02916504 2.51318848 7.04418945 3.80786133 C7.10211604 8.46537892 7.17934911 13.12241016 7.26245117 17.77954102 C7.2957271 19.79606235 7.32375068 21.81267742 7.34643555 23.8293457 C7.37993256 26.726481 7.43224544 29.62275518 7.48828125 32.51953125 C7.49467117 33.42274612 7.5010611 34.325961 7.50764465 35.25654602 C7.52743881 36.09719101 7.54723297 36.937836 7.56762695 37.80395508 C7.57873001 38.54341873 7.58983307 39.28288239 7.60127258 40.04475403 C8.11275204 42.55290399 9.02191141 43.41848193 11 45 C13.59915538 46.19027984 13.59915538 46.19027984 16 47 C16 48.98 16 50.96 16 53 C10.69356959 53.50537432 8.13319688 52.30655751 4 49 C0.89430069 45.46592837 -0.12754283 42.47176377 -0.11352539 37.80395508 C-0.11344986 36.96331009 -0.11337433 36.1226651 -0.11329651 35.25654602 C-0.10813522 34.35333115 -0.10297394 33.45011627 -0.09765625 32.51953125 C-0.0962413 31.59154221 -0.09482635 30.66355316 -0.09336853 29.70744324 C-0.08776937 26.74242942 -0.07521704 23.77749101 -0.0625 20.8125 C-0.05748489 18.80273547 -0.052922 16.79296975 -0.04882812 14.78320312 C-0.03780021 9.85543968 -0.02053617 4.92773263 0 0 Z " fill="#45517B" transform="translate(121,35)"/>
<path d="M0 0 C2.31 0 4.62 0 7 0 C7.07433795 5.87155408 7.12869117 11.74283219 7.16479492 17.61474609 C7.17985098 19.61088841 7.20030027 21.60699781 7.22631836 23.60302734 C7.26284161 26.47762185 7.27975837 29.35177772 7.29296875 32.2265625 C7.30845261 33.11429352 7.32393646 34.00202454 7.33988953 34.91665649 C7.34127135 40.04174997 6.87079228 43.56980189 4 48 C-0.53563261 52.09313187 -2.93261474 53.13189968 -9 53 C-9 51.02 -9 49.04 -9 47 C-7.576875 46.319375 -7.576875 46.319375 -6.125 45.625 C-2.99686321 44.19761746 -2.99686321 44.19761746 -1 42 C-0.67087115 40.10388475 -0.67087115 40.10388475 -0.68115234 37.91748047 C-0.66128265 37.07675995 -0.64141296 36.23603943 -0.62094116 35.36984253 C-0.60938995 34.46146637 -0.59783875 33.55309021 -0.5859375 32.6171875 C-0.56657135 31.68778351 -0.5472052 30.75837952 -0.5272522 29.80081177 C-0.46736315 26.8256352 -0.4210339 23.85042012 -0.375 20.875 C-0.33682879 18.86066 -0.29777757 16.84633646 -0.2578125 14.83203125 C-0.161654 9.88815425 -0.0776576 4.94420083 0 0 Z " fill="#44527A" transform="translate(96,35)"/>
<path d="M0 0 C2.31 0 4.62 0 7 0 C7 1.65 7 3.3 7 5 C8.32 5 9.64 5 11 5 C11 6.65 11 8.3 11 10 C9.68 10 8.36 10 7 10 C7 12.64 7 15.28 7 18 C8.32 17.67 9.64 17.34 11 17 C11.38218767 18.65614657 11.71395102 20.32457024 12 22 C10.12735324 23.87264676 7.50240053 23.23607378 5.0078125 23.328125 C3 23 3 23 1.25390625 21.80859375 C-0.43639221 19.37056202 -0.30191345 17.7491119 -0.1875 14.8125 C-0.16042969 13.91144531 -0.13335937 13.01039063 -0.10546875 12.08203125 C-0.07066406 11.39496094 -0.03585938 10.70789063 0 10 C-4.34184202 10.18464366 -4.34184202 10.18464366 -8 12 C-8.23363881 13.84891946 -8.41303635 15.70488031 -8.5625 17.5625 C-8.64628906 18.57441406 -8.73007813 19.58632812 -8.81640625 20.62890625 C-8.87699219 21.41136719 -8.93757812 22.19382813 -9 23 C-11.31 23 -13.62 23 -16 23 C-16 16.73 -16 10.46 -16 4 C-3.375 3.875 -3.375 3.875 0 5 C0 3.35 0 1.7 0 0 Z " fill="#45517B" transform="translate(212,126)"/>
<path d="M0 0 C0.95648438 -0.02578125 1.91296875 -0.0515625 2.8984375 -0.078125 C6.00392147 0.29560086 7.33036066 1.18373709 9.625 3.25 C9.295 4.57 8.965 5.89 8.625 7.25 C4.92969722 8.61863066 3.17225698 7.66890279 -0.375 6.25 C-2.61740782 6.53739925 -2.61740782 6.53739925 -4.375 7.25 C-4.41625 8.52875 -4.4575 9.8075 -4.5 11.125 C-4.53480469 12.20394531 -4.53480469 12.20394531 -4.5703125 13.3046875 C-4.55831689 15.48863645 -4.55831689 15.48863645 -2.375 17.25 C-0.0318787 16.99438677 2.30343403 16.65729228 4.625 16.25 C5.615 16.25 6.605 16.25 7.625 16.25 C8.285 16.91 8.945 17.57 9.625 18.25 C9.5 20.25 9.5 20.25 8.625 22.25 C4.23889106 25.00110851 -0.36023395 25.04762421 -5.375 24.25 C-8.49677233 22.56712073 -10.76637035 20.4672593 -12.375 17.25 C-12.89012617 13.15842645 -13.31867269 9.01410454 -11.328125 5.29296875 C-7.74212661 0.95812952 -5.44264284 0.08754921 0 0 Z " fill="#44517A" transform="translate(138.375,124.75)"/>
<path d="M0 0 C2.578125 -0.061875 5.15625 -0.12375 7.8125 -0.1875 C9.02450073 -0.22846802 9.02450073 -0.22846802 10.26098633 -0.27026367 C15.51199749 -0.33152876 15.51199749 -0.33152876 17.94921875 1.32421875 C20.28715446 5.05274819 20.10484724 8.41042826 20.0625 12.6875 C20.05347656 13.86699219 20.04445313 15.04648438 20.03515625 16.26171875 C20.02355469 17.16535156 20.01195313 18.06898438 20 19 C17.69 19 15.38 19 13 19 C12.67 14.71 12.34 10.42 12 6 C10.02 6.99 10.02 6.99 8 8 C7.29626983 10.64787088 7.29626983 10.64787088 7.25 13.625 C7.19328125 14.62789062 7.1365625 15.63078125 7.078125 16.6640625 C7.05234375 17.43492187 7.0265625 18.20578125 7 19 C4.69 19 2.38 19 0 19 C0 12.73 0 6.46 0 0 Z " fill="#44517B" transform="translate(42,130)"/>
<path d="M0 0 C2.5 0.9375 2.5 0.9375 4 3 C4.61582733 5.99419494 4.87206945 8.94885644 5 12 C4.01 12.33 3.02 12.66 2 13 C2.66 14.32 3.32 15.64 4 17 C-0.3203818 19.43939925 -4.125098 19.81537507 -9 19 C-12.0625 17.0625 -12.0625 17.0625 -14 14 C-15.03945854 9.24941677 -14.669717 6.05858493 -12.0625 1.9375 C-7.92542902 -0.67983062 -4.76693941 -0.77518454 0 0 Z M-6 5 C-6.33 5.99 -6.66 6.98 -7 8 C-5.35 8 -3.7 8 -2 8 C-2.33 7.01 -2.66 6.02 -3 5 C-3.99 5 -4.98 5 -6 5 Z M-7 12 C-6.34 12.66 -5.68 13.32 -5 14 C-2.39719432 13.67958603 -2.39719432 13.67958603 0 13 C0 12.67 0 12.34 0 12 C-2.31 12 -4.62 12 -7 12 Z " fill="#44517A" transform="translate(34,130)"/>
<path d="M0 0 C3 1.4375 3 1.4375 5 4 C5.9648449 7.06009981 6.30775495 9.80276805 6 13 C4.23496686 15.92143417 3.04152365 17.47923817 0 19 C-4.44249756 19.53240148 -7.9610943 19.51945285 -12 17.5 C-14.69713738 14.12857828 -15.30665694 11.28467889 -15 7 C-11.92157528 -0.08037686 -7.08125394 -0.95659044 0 0 Z M-5 5 C-6.66621425 6.1645201 -6.66621425 6.1645201 -8 8 C-7.76956136 10.65466049 -7.76956136 10.65466049 -7 13 C-5.10820797 13.6814823 -5.10820797 13.6814823 -3 14 C-2.34 13.34 -1.68 12.68 -1 12 C-1.32198966 8.90073181 -1.32198966 8.90073181 -2 6 C-2.99 5.67 -3.98 5.34 -5 5 Z " fill="#44527B" transform="translate(164,130)"/>
<path d="M0 0 C2.31 0 4.62 0 7 0 C7.33 3.96 7.66 7.92 8 12 C8.99 12 9.98 12 11 12 C12.21693876 9.56612247 12.31959896 7.58161154 12.5625 4.875 C12.64628906 3.96492187 12.73007813 3.05484375 12.81640625 2.1171875 C12.87699219 1.41851562 12.93757812 0.71984375 13 0 C14.98 0 16.96 0 19 0 C19 6.27 19 12.54 19 19 C15.3803125 19.061875 15.3803125 19.061875 11.6875 19.125 C10.93170654 19.14320801 10.17591309 19.16141602 9.3972168 19.18017578 C5.68552129 19.21099473 4.16466336 19.10977558 1 17 C-0.18681726 13.43954823 -0.09689832 10.56191663 -0.0625 6.8125 C-0.05347656 5.54019531 -0.04445312 4.26789063 -0.03515625 2.95703125 C-0.02355469 1.98121094 -0.01195312 1.00539062 0 0 Z " fill="#44517A" transform="translate(172,130)"/>
<path d="M0 0 C2.66666667 0 5.33333333 0 8 0 C9.670625 -0.12375 9.670625 -0.12375 11.375 -0.25 C15 0 15 0 17.2109375 1.53125 C19.63848953 4.88105979 19.44485571 7.78543578 19.25 11.75 C19.23195313 12.44738281 19.21390625 13.14476562 19.1953125 13.86328125 C19.14838554 15.57611539 19.07664605 17.28823824 19 19 C16.69 19 14.38 19 12 19 C11.67 15.04 11.34 11.08 11 7 C10.01 7 9.02 7 8 7 C6.78306124 9.43387753 6.68040104 11.41838846 6.4375 14.125 C6.35371094 15.03507813 6.26992187 15.94515625 6.18359375 16.8828125 C6.12300781 17.58148438 6.06242187 18.28015625 6 19 C4.02 19 2.04 19 0 19 C0 12.73 0 6.46 0 0 Z " fill="#44517B" transform="translate(66,130)"/>
<path d="M0 0 C0.78246094 -0.01417969 1.56492187 -0.02835938 2.37109375 -0.04296875 C4.5625 0.1875 4.5625 0.1875 7.5625 2.1875 C6.9025 3.8375 6.2425 5.4875 5.5625 7.1875 C4.9025 7.1875 4.2425 7.1875 3.5625 7.1875 C4.2225 7.55875 4.8825 7.93 5.5625 8.3125 C7.5625 10.1875 7.5625 10.1875 8 13.1875 C7.51351283 16.52341205 7.19465081 17.22346625 4.5625 19.1875 C2.1875 19.55078125 2.1875 19.55078125 -0.4375 19.5 C-1.30375 19.49613281 -2.17 19.49226563 -3.0625 19.48828125 C-5.4375 19.1875 -5.4375 19.1875 -8.4375 17.1875 C-8.1075 15.5375 -7.7775 13.8875 -7.4375 12.1875 C-5.1275 12.5175 -2.8175 12.8475 -0.4375 13.1875 C-2.1390625 12.5996875 -2.1390625 12.5996875 -3.875 12 C-7.4375 10.1875 -7.4375 10.1875 -8.5 7.75 C-8.43152019 4.94232799 -8.00699615 3.50044169 -6.4375 1.1875 C-4.0978331 0.01766655 -2.60358473 0.0213759 0 0 Z " fill="#44517A" transform="translate(107.4375,129.8125)"/>
<path d="M0 0 C6.93 0 13.86 0 21 0 C21 1.65 21 3.3 21 5 C18.69 5 16.38 5 14 5 C14 11.27 14 17.54 14 24 C11.69 24 9.38 24 7 24 C7 17.73 7 11.46 7 5 C4.69 5 2.38 5 0 5 C0 3.35 0 1.7 0 0 Z " fill="#44517B" transform="translate(0,125)"/>
<path d="M0 0 C2.31 0 4.62 0 7 0 C7 6.27 7 12.54 7 19 C4.69 19 2.38 19 0 19 C0 12.73 0 6.46 0 0 Z " fill="#44517B" transform="translate(89,130)"/>
<path d="M0 0 C1.2065625 0.0309375 1.2065625 0.0309375 2.4375 0.0625 C3.0625 2.4375 3.0625 2.4375 3.4375 5.0625 C2.7775 5.7225 2.1175 6.3825 1.4375 7.0625 C-1.1875 6.6875 -1.1875 6.6875 -3.5625 6.0625 C-3.605221 4.39638095 -3.60313832 2.72867115 -3.5625 1.0625 C-2.5625 0.0625 -2.5625 0.0625 0 0 Z " fill="#47537B" transform="translate(92.5625,121.9375)"/>
</svg>
